# xmcd CD database file
#
# Track frame offsets:
#	150
#	24844
#	55469
#	88940
#	113533
#	143646
#	153554
#	164995
#	176467
#	197155
#
# Disc length: 3019 seconds
#
# Revision: 0
# Processed by: cddbd v1.5.2PL0 Copyright (c) Steve Scherf et al.
# Submitted via: CDex 1.51
#
DISCID=850bc90a
DTITLE=Dave Brubeck Quartet - Take Five
DYEAR=1900
DGENRE=Jazz
TTITLE0=Take five
TTITLE1=Blue rondo a la turk
TTITLE2=Strange meadow lark 
TTITLE3=Three to get ready
TTITLE4=Georgia on my mind
TTITLE5=Camptown races
TTITLE6=Short'nin' bread
TTITLE7=Old man river
TTITLE8=Basin street blues
TTITLE9=Pennies from heaven
EXTD=
EXTT0=
EXTT1=
EXTT2=
EXTT3=
EXTT4=
EXTT5=
EXTT6=
EXTT7=
EXTT8=
EXTT9=
PLAYORDER=
